<?xml version="1.0" encoding="utf-8" standalone="no"?>
<!DOCTYPE svg PUBLIC "-//W3C//DTD SVG 1.1//EN"
  "http://www.w3.org/Graphics/SVG/1.1/DTD/svg11.dtd">
<!-- Created with matplotlib (https://matplotlib.org/) -->
<svg height="121.640384pt" version="1.1" viewBox="0 0 378.866336 121.640384" width="378.866336pt" xmlns="http://www.w3.org/2000/svg" xmlns:xlink="http://www.w3.org/1999/xlink">
 <defs>
  <style type="text/css">
*{stroke-linecap:butt;stroke-linejoin:round;}
  </style>
 </defs>
 <g id="figure_1">
  <g id="patch_1">
   <path d="M 0 121.640384 
L 378.866336 121.640384 
L 378.866336 0 
L 0 0 
z
" style="fill:none;"/>
  </g>
  <g id="axes_1">
   <g id="patch_2">
    <path d="M 35.304688 97.762259 
L 370.104688 97.762259 
L 370.104688 7.2 
L 35.304688 7.2 
z
" style="fill:#ffffff;"/>
   </g>
   <g id="matplotlib.axis_1">
    <g id="xtick_1">
     <g id="line2d_1">
      <defs>
       <path d="M 0 0 
L 0 3.5 
" id="m815d4c0d56" style="stroke:#000000;stroke-width:0.8;"/>
      </defs>
      <g>
       <use style="stroke:#000000;stroke-width:0.8;" x="80.585817" xlink:href="#m815d4c0d56" y="97.762259"/>
      </g>
     </g>
     <g id="text_1">
      <!-- 0 -->
      <defs>
       <path d="M 31.78125 66.40625 
Q 24.171875 66.40625 20.328125 58.90625 
Q 16.5 51.421875 16.5 36.375 
Q 16.5 21.390625 20.328125 13.890625 
Q 24.171875 6.390625 31.78125 6.390625 
Q 39.453125 6.390625 43.28125 13.890625 
Q 47.125 21.390625 47.125 36.375 
Q 47.125 51.421875 43.28125 58.90625 
Q 39.453125 66.40625 31.78125 66.40625 
z
M 31.78125 74.21875 
Q 44.046875 74.21875 50.515625 64.515625 
Q 56.984375 54.828125 56.984375 36.375 
Q 56.984375 17.96875 50.515625 8.265625 
Q 44.046875 -1.421875 31.78125 -1.421875 
Q 19.53125 -1.421875 13.0625 8.265625 
Q 6.59375 17.96875 6.59375 36.375 
Q 6.59375 54.828125 13.0625 64.515625 
Q 19.53125 74.21875 31.78125 74.21875 
z
" id="DejaVuSans-48"/>
      </defs>
      <g transform="translate(77.404567 112.360696)scale(0.1 -0.1)">
       <use xlink:href="#DejaVuSans-48"/>
      </g>
     </g>
    </g>
    <g id="xtick_2">
     <g id="line2d_2">
      <g>
       <use style="stroke:#000000;stroke-width:0.8;" x="127.508612" xlink:href="#m815d4c0d56" y="97.762259"/>
      </g>
     </g>
     <g id="text_2">
      <!-- 50 -->
      <defs>
       <path d="M 10.796875 72.90625 
L 49.515625 72.90625 
L 49.515625 64.59375 
L 19.828125 64.59375 
L 19.828125 46.734375 
Q 21.96875 47.46875 24.109375 47.828125 
Q 26.265625 48.1875 28.421875 48.1875 
Q 40.625 48.1875 47.75 41.5 
Q 54.890625 34.8125 54.890625 23.390625 
Q 54.890625 11.625 47.5625 5.09375 
Q 40.234375 -1.421875 26.90625 -1.421875 
Q 22.3125 -1.421875 17.546875 -0.640625 
Q 12.796875 0.140625 7.71875 1.703125 
L 7.71875 11.625 
Q 12.109375 9.234375 16.796875 8.0625 
Q 21.484375 6.890625 26.703125 6.890625 
Q 35.15625 6.890625 40.078125 11.328125 
Q 45.015625 15.765625 45.015625 23.390625 
Q 45.015625 31 40.078125 35.4375 
Q 35.15625 39.890625 26.703125 39.890625 
Q 22.75 39.890625 18.8125 39.015625 
Q 14.890625 38.140625 10.796875 36.28125 
z
" id="DejaVuSans-53"/>
      </defs>
      <g transform="translate(121.146112 112.360696)scale(0.1 -0.1)">
       <use xlink:href="#DejaVuSans-53"/>
       <use x="63.623047" xlink:href="#DejaVuSans-48"/>
      </g>
     </g>
    </g>
    <g id="xtick_3">
     <g id="line2d_3">
      <g>
       <use style="stroke:#000000;stroke-width:0.8;" x="174.431407" xlink:href="#m815d4c0d56" y="97.762259"/>
      </g>
     </g>
     <g id="text_3">
      <!-- 100 -->
      <defs>
       <path d="M 12.40625 8.296875 
L 28.515625 8.296875 
L 28.515625 63.921875 
L 10.984375 60.40625 
L 10.984375 69.390625 
L 28.421875 72.90625 
L 38.28125 72.90625 
L 38.28125 8.296875 
L 54.390625 8.296875 
L 54.390625 0 
L 12.40625 0 
z
" id="DejaVuSans-49"/>
      </defs>
      <g transform="translate(164.887657 112.360696)scale(0.1 -0.1)">
       <use xlink:href="#DejaVuSans-49"/>
       <use x="63.623047" xlink:href="#DejaVuSans-48"/>
       <use x="127.246094" xlink:href="#DejaVuSans-48"/>
      </g>
     </g>
    </g>
    <g id="xtick_4">
     <g id="line2d_4">
      <g>
       <use style="stroke:#000000;stroke-width:0.8;" x="221.354201" xlink:href="#m815d4c0d56" y="97.762259"/>
      </g>
     </g>
     <g id="text_4">
      <!-- 150 -->
      <g transform="translate(211.810451 112.360696)scale(0.1 -0.1)">
       <use xlink:href="#DejaVuSans-49"/>
       <use x="63.623047" xlink:href="#DejaVuSans-53"/>
       <use x="127.246094" xlink:href="#DejaVuSans-48"/>
      </g>
     </g>
    </g>
    <g id="xtick_5">
     <g id="line2d_5">
      <g>
       <use style="stroke:#000000;stroke-width:0.8;" x="268.276996" xlink:href="#m815d4c0d56" y="97.762259"/>
      </g>
     </g>
     <g id="text_5">
      <!-- 200 -->
      <defs>
       <path d="M 19.1875 8.296875 
L 53.609375 8.296875 
L 53.609375 0 
L 7.328125 0 
L 7.328125 8.296875 
Q 12.9375 14.109375 22.625 23.890625 
Q 32.328125 33.6875 34.8125 36.53125 
Q 39.546875 41.84375 41.421875 45.53125 
Q 43.3125 49.21875 43.3125 52.78125 
Q 43.3125 58.59375 39.234375 62.25 
Q 35.15625 65.921875 28.609375 65.921875 
Q 23.96875 65.921875 18.8125 64.3125 
Q 13.671875 62.703125 7.8125 59.421875 
L 7.8125 69.390625 
Q 13.765625 71.78125 18.9375 73 
Q 24.125 74.21875 28.421875 74.21875 
Q 39.75 74.21875 46.484375 68.546875 
Q 53.21875 62.890625 53.21875 53.421875 
Q 53.21875 48.921875 51.53125 44.890625 
Q 49.859375 40.875 45.40625 35.40625 
Q 44.1875 33.984375 37.640625 27.21875 
Q 31.109375 20.453125 19.1875 8.296875 
z
" id="DejaVuSans-50"/>
      </defs>
      <g transform="translate(258.733246 112.360696)scale(0.1 -0.1)">
       <use xlink:href="#DejaVuSans-50"/>
       <use x="63.623047" xlink:href="#DejaVuSans-48"/>
       <use x="127.246094" xlink:href="#DejaVuSans-48"/>
      </g>
     </g>
    </g>
    <g id="xtick_6">
     <g id="line2d_6">
      <g>
       <use style="stroke:#000000;stroke-width:0.8;" x="315.199791" xlink:href="#m815d4c0d56" y="97.762259"/>
      </g>
     </g>
     <g id="text_6">
      <!-- 250 -->
      <g transform="translate(305.656041 112.360696)scale(0.1 -0.1)">
       <use xlink:href="#DejaVuSans-50"/>
       <use x="63.623047" xlink:href="#DejaVuSans-53"/>
       <use x="127.246094" xlink:href="#DejaVuSans-48"/>
      </g>
     </g>
    </g>
    <g id="xtick_7">
     <g id="line2d_7">
      <g>
       <use style="stroke:#000000;stroke-width:0.8;" x="362.122586" xlink:href="#m815d4c0d56" y="97.762259"/>
      </g>
     </g>
     <g id="text_7">
      <!-- 300 -->
      <defs>
       <path d="M 40.578125 39.3125 
Q 47.65625 37.796875 51.625 33 
Q 55.609375 28.21875 55.609375 21.1875 
Q 55.609375 10.40625 48.1875 4.484375 
Q 40.765625 -1.421875 27.09375 -1.421875 
Q 22.515625 -1.421875 17.65625 -0.515625 
Q 12.796875 0.390625 7.625 2.203125 
L 7.625 11.71875 
Q 11.71875 9.328125 16.59375 8.109375 
Q 21.484375 6.890625 26.8125 6.890625 
Q 36.078125 6.890625 40.9375 10.546875 
Q 45.796875 14.203125 45.796875 21.1875 
Q 45.796875 27.640625 41.28125 31.265625 
Q 36.765625 34.90625 28.71875 34.90625 
L 20.21875 34.90625 
L 20.21875 43.015625 
L 29.109375 43.015625 
Q 36.375 43.015625 40.234375 45.921875 
Q 44.09375 48.828125 44.09375 54.296875 
Q 44.09375 59.90625 40.109375 62.90625 
Q 36.140625 65.921875 28.71875 65.921875 
Q 24.65625 65.921875 20.015625 65.03125 
Q 15.375 64.15625 9.8125 62.3125 
L 9.8125 71.09375 
Q 15.4375 72.65625 20.34375 73.4375 
Q 25.25 74.21875 29.59375 74.21875 
Q 40.828125 74.21875 47.359375 69.109375 
Q 53.90625 64.015625 53.90625 55.328125 
Q 53.90625 49.265625 50.4375 45.09375 
Q 46.96875 40.921875 40.578125 39.3125 
z
" id="DejaVuSans-51"/>
      </defs>
      <g transform="translate(352.578836 112.360696)scale(0.1 -0.1)">
       <use xlink:href="#DejaVuSans-51"/>
       <use x="63.623047" xlink:href="#DejaVuSans-48"/>
       <use x="127.246094" xlink:href="#DejaVuSans-48"/>
      </g>
     </g>
    </g>
   </g>
   <g id="matplotlib.axis_2">
    <g id="ytick_1">
     <g id="line2d_8">
      <defs>
       <path d="M 0 0 
L -3.5 0 
" id="m2ae7c4b914" style="stroke:#000000;stroke-width:0.8;"/>
      </defs>
      <g>
       <use style="stroke:#000000;stroke-width:0.8;" x="35.304688" xlink:href="#m2ae7c4b914" y="75.942527"/>
      </g>
     </g>
     <g id="text_8">
      <!-- −25 -->
      <defs>
       <path d="M 10.59375 35.5 
L 73.1875 35.5 
L 73.1875 27.203125 
L 10.59375 27.203125 
z
" id="DejaVuSans-8722"/>
      </defs>
      <g transform="translate(7.2 79.741746)scale(0.1 -0.1)">
       <use xlink:href="#DejaVuSans-8722"/>
       <use x="83.789062" xlink:href="#DejaVuSans-50"/>
       <use x="147.412109" xlink:href="#DejaVuSans-53"/>
      </g>
     </g>
    </g>
    <g id="ytick_2">
     <g id="line2d_9">
      <g>
       <use style="stroke:#000000;stroke-width:0.8;" x="35.304688" xlink:href="#m2ae7c4b914" y="52.481129"/>
      </g>
     </g>
     <g id="text_9">
      <!-- 0 -->
      <g transform="translate(21.942188 56.280348)scale(0.1 -0.1)">
       <use xlink:href="#DejaVuSans-48"/>
      </g>
     </g>
    </g>
    <g id="ytick_3">
     <g id="line2d_10">
      <g>
       <use style="stroke:#000000;stroke-width:0.8;" x="35.304688" xlink:href="#m2ae7c4b914" y="29.019732"/>
      </g>
     </g>
     <g id="text_10">
      <!-- 25 -->
      <g transform="translate(15.579688 32.818951)scale(0.1 -0.1)">
       <use xlink:href="#DejaVuSans-50"/>
       <use x="63.623047" xlink:href="#DejaVuSans-53"/>
      </g>
     </g>
    </g>
   </g>
   <g id="line2d_11">
    <path clip-path="url(#pd1fe997092)" d="M 327.934717 43.174427 
L 328.266238 43.358463 
L 328.548665 43.786707 
L 330.479276 44.040334 
L 330.572229 44.199686 
L 330.589145 44.199066 
L 330.961086 44.186744 
L 331.670129 44.286221 
L 332.008941 44.174088 
L 332.025644 44.222366 
L 332.339771 44.283925 
L 333.123814 44.351532 
L 333.509262 44.331647 
L 334.347025 44.054914 
L 337.669383 45.393399 
L 337.806717 45.615066 
L 338.038522 45.681087 
L 338.231217 45.642854 
L 338.354665 45.640455 
L 338.362755 45.874481 
L 338.516234 46.074589 
L 338.531658 46.068323 
L 338.780196 46.014502 
L 338.971786 46.115306 
L 338.969193 46.129132 
L 338.851004 46.297269 
L 338.93101 46.330783 
L 339.858038 46.768519 
L 340.186866 48.515955 
L 339.628724 49.490796 
L 339.34793 49.681859 
L 339.417708 50.011405 
L 340.024656 50.160039 
L 341.453655 49.577873 
L 342.506517 49.303735 
L 343.300603 48.91987 
L 343.294468 48.903667 
L 343.164798 48.706976 
L 343.12178 48.536347 
L 343.041975 48.423377 
L 343.130782 48.389346 
L 343.71172 48.254124 
L 345.308272 48.158215 
L 345.81275 47.662848 
L 346.197466 47.393151 
L 346.810358 46.97913 
L 347.683931 46.891478 
L 350.258168 46.727649 
L 350.403135 46.564667 
L 350.627033 46.543386 
L 350.723103 46.521195 
L 350.780421 46.611513 
L 350.835316 46.522264 
L 350.868369 46.426018 
L 350.908227 46.43281 
L 351.012848 46.443776 
L 350.927515 46.352062 
L 351.165582 46.163842 
L 351.230756 46.119309 
L 351.222612 46.062134 
L 351.364584 45.92972 
L 351.306479 45.883799 
L 351.600051 45.199748 
L 352.30718 44.4933 
L 352.465756 44.55633 
L 352.455715 44.612452 
L 352.481574 44.687617 
L 352.742992 44.693814 
L 353.36171 44.635659 
L 353.644255 44.865345 
L 353.805664 46.174661 
L 354.027254 46.267898 
L 353.976018 46.34204 
L 354.379257 46.826138 
L 354.253998 46.840641 
L 354.300737 46.936438 
L 354.355879 46.86723 
L 354.422771 46.972183 
L 354.344235 47.016829 
L 354.166845 47.104149 
L 354.014054 47.083554 
L 354.034228 47.135028 
L 353.330399 47.280093 
L 353.32566 47.232787 
L 353.218061 47.2264 
L 353.299915 47.283702 
L 353.252684 47.298179 
L 352.970376 47.342165 
L 352.988992 47.417654 
L 353.004541 47.504356 
L 352.86995 47.453349 
L 352.751493 47.324573 
L 352.779641 47.295075 
L 352.775433 47.204334 
L 352.715475 47.306788 
L 352.682945 47.293594 
L 352.540298 47.51781 
L 352.332667 47.805964 
L 352.354619 47.73278 
L 352.232356 47.767811 
L 352.245109 47.685104 
L 352.158993 47.774011 
L 352.067722 47.900295 
L 352.077156 47.725416 
L 352.046579 47.771422 
L 351.871713 47.974877 
L 352.000938 47.722315 
L 351.838698 47.856127 
L 351.850542 47.69327 
L 351.80701 48.033615 
L 351.75368 47.938634 
L 351.619251 47.998155 
L 351.656068 47.882134 
L 351.473364 47.984911 
L 351.012113 48.61799 
L 350.985723 48.590545 
L 350.949494 48.650334 
L 350.996684 48.649493 
L 350.974874 48.694603 
L 350.860905 48.879228 
L 350.907806 48.912652 
L 351.025045 49.049473 
L 351.045971 49.000141 
L 351.103476 49.017165 
L 350.83763 49.20268 
L 350.688706 49.347614 
L 350.734331 49.382171 
L 351.08303 49.554901 
L 351.078493 49.57103 
L 351.305268 49.87675 
L 351.67999 49.802552 
L 351.546125 49.578905 
L 351.444037 49.577026 
L 351.694321 49.673389 
L 351.74004 49.934755 
L 351.703059 49.928332 
L 351.042 50.082915 
L 351.089108 49.912766 
L 351.006079 49.881496 
L 350.979726 49.944339 
L 350.880159 50.029001 
L 350.856896 49.995385 
L 350.833806 49.984452 
L 350.796066 50.082425 
L 350.560891 50.128588 
L 350.563613 50.101609 
L 350.565686 49.946887 
L 350.638254 49.840866 
L 350.461474 49.973318 
L 350.477485 49.889249 
L 350.374578 49.825596 
L 350.387427 49.952185 
L 350.18808 50.252798 
L 349.487089 50.322933 
L 349.444094 50.268427 
L 349.466422 50.352171 
L 349.388484 50.343068 
L 348.973323 50.38148 
L 348.973579 50.371833 
L 348.959042 50.335259 
L 348.874203 50.415166 
L 348.704292 50.474762 
L 348.205207 50.686049 
L 348.014082 50.823249 
L 348.03882 50.70479 
L 347.99339 50.418919 
L 347.968321 50.359214 
L 348.02943 50.624461 
L 347.917121 50.910188 
L 347.711199 51.152746 
L 347.767099 51.169649 
L 347.980181 51.208791 
L 347.876912 51.79126 
L 347.882008 51.570702 
L 347.836631 51.644259 
L 347.84262 51.670321 
L 347.158256 52.585995 
L 347.071597 52.595891 
L 347.091851 52.512007 
L 347.124685 52.365968 
L 347.056363 52.354463 
L 346.815331 52.283984 
L 346.681252 52.212114 
L 346.505696 51.96349 
L 346.526067 51.946518 
L 346.984793 51.596194 
L 346.999395 51.583077 
L 346.49828 52.133421 
L 346.513655 52.14679 
L 346.656241 52.401012 
L 346.763336 52.623195 
L 346.985957 52.882119 
L 346.933055 52.89374 
L 346.852831 52.943919 
L 346.990748 52.900863 
L 346.9991 52.980682 
L 346.978256 53.159984 
L 346.912035 53.089017 
L 346.882422 53.094563 
L 346.963773 53.161564 
L 346.942155 53.196893 
L 346.215967 54.156584 
L 346.183729 54.312849 
L 346.445555 53.516482 
L 346.245889 53.550268 
L 346.304675 53.434661 
L 346.359148 53.384066 
L 346.256439 53.405311 
L 346.25974 53.347194 
L 346.172022 53.345805 
L 346.285894 53.270146 
L 346.202672 53.236779 
L 346.259722 53.110473 
L 346.150481 53.259373 
L 346.122363 53.152864 
L 345.997761 53.208985 
L 345.988953 53.192046 
L 345.81092 53.034103 
L 345.921213 52.994339 
L 346.15005 52.879551 
L 345.841372 52.969881 
L 345.968262 52.856578 
L 345.782549 52.851709 
L 345.812954 52.743796 
L 345.866886 52.695125 
L 345.919677 52.76806 
L 345.995417 52.758276 
L 345.928027 52.701738 
L 345.985006 52.682474 
L 346.004488 52.670867 
L 345.918332 52.672111 
L 345.907687 52.610753 
L 345.794758 52.638813 
L 345.796147 52.686969 
L 345.753056 52.709943 
L 345.787018 52.574646 
L 345.824457 52.533892 
L 345.899384 52.582499 
L 346.026991 52.435428 
L 346.038044 52.418522 
L 345.880954 52.535519 
L 345.878825 52.466612 
L 345.897334 52.312543 
L 346.159407 52.210753 
L 346.245902 52.202969 
L 346.06247 52.186456 
L 346.24416 52.113364 
L 345.979836 52.092263 
L 346.024048 52.134714 
L 345.82949 52.2682 
L 345.802153 52.182224 
L 345.717927 52.193485 
L 345.697612 52.258503 
L 345.512314 52.322144 
L 345.658591 52.417556 
L 345.727572 52.548226 
L 345.612996 52.483512 
L 345.683262 52.557719 
L 345.658391 52.56765 
L 345.594329 52.504187 
L 345.571666 52.495036 
L 345.672143 52.645282 
L 345.601624 52.672625 
L 345.610847 52.868345 
L 345.72068 53.198537 
L 345.585311 53.10495 
L 345.503078 53.030079 
L 345.468226 52.867711 
L 345.638791 53.173989 
L 345.815318 53.45751 
L 345.638832 53.370606 
L 345.619614 53.37224 
L 345.588178 53.316654 
L 345.56479 53.305811 
L 344.922174 53.052262 
L 344.989374 52.959375 
L 345.108972 52.668496 
L 344.857878 53.195685 
L 344.942116 53.205993 
L 345.200335 53.256529 
L 345.894693 53.608257 
L 345.838751 53.734978 
L 345.822134 53.734804 
L 345.652454 53.823846 
L 345.641049 53.8128 
L 345.465341 53.658555 
L 345.060419 53.348124 
L 345.890403 54.120914 
L 345.80476 54.080866 
L 345.711377 54.082757 
L 345.77815 54.182397 
L 345.586136 54.131558 
L 345.387049 53.945608 
L 345.860082 54.423681 
L 345.712677 54.410963 
L 345.329244 54.160766 
L 345.325242 54.143504 
L 345.281762 54.215388 
L 345.239059 54.19166 
L 345.087656 54.148122 
L 344.936821 54.157432 
L 345.208066 54.196616 
L 345.212627 54.215128 
L 345.44139 54.297597 
L 345.657048 54.473047 
L 345.867349 54.577496 
L 345.848117 54.474566 
L 346.150252 54.513423 
L 346.42223 55.24227 
L 346.607024 55.553542 
L 346.238355 54.78176 
L 346.18294 54.693503 
L 346.240235 54.902069 
L 346.167115 54.873586 
L 346.103913 54.81699 
L 346.173857 54.992502 
L 346.356259 55.288811 
L 346.199829 55.169404 
L 346.23962 55.206404 
L 346.061759 55.135881 
L 345.95502 55.075548 
L 346.093994 55.218439 
L 346.035348 55.248873 
L 345.468383 55.212114 
L 345.480396 55.169944 
L 345.48682 55.085833 
L 345.495817 55.373825 
L 346.13565 55.433917 
L 345.47256 55.426983 
L 346.111814 55.539831 
L 346.127977 55.697407 
L 346.218925 55.4386 
L 346.232776 55.449712 
L 346.243876 55.425397 
L 346.366971 55.763266 
L 345.777578 55.971722 
L 345.798824 55.930977 
L 345.773759 55.879369 
L 345.73344 55.962574 
L 345.699996 55.949474 
L 345.630014 55.840762 
L 345.716965 55.834145 
L 345.730441 55.808255 
L 345.615863 55.802462 
L 345.557865 55.830821 
L 345.607557 55.923314 
L 345.624095 55.939071 
L 345.275443 55.867018 
L 345.177929 55.825373 
L 345.726203 56.055905 
L 345.673555 56.129648 
L 345.634552 56.119445 
L 345.538097 56.159819 
L 345.65141 56.177209 
L 345.597678 56.228554 
L 345.508748 56.298457 
L 345.387562 56.329916 
L 345.159155 56.179979 
L 345.66943 56.381154 
L 345.64136 56.324295 
L 345.922006 56.338204 
L 345.913308 56.350518 
L 345.631723 56.551578 
L 345.642409 56.523643 
L 345.469413 56.536401 
L 345.494192 56.539929 
L 345.308581 56.585473 
L 344.867252 56.718713 
L 344.889525 56.591327 
L 344.832222 56.565056 
L 344.884336 56.678049 
L 344.834763 56.68795 
L 344.892226 56.753862 
L 344.620759 56.923331 
L 344.416463 57.269092 
L 344.37206 57.346494 
L 344.353943 57.102181 
L 344.348269 57.128568 
L 344.359498 57.195379 
L 344.343404 57.326274 
L 344.187019 57.364451 
L 343.74213 57.438256 
L 343.442859 57.635267 
L 342.602318 58.480853 
L 342.488332 58.44457 
L 342.58407 58.528415 
L 342.56951 58.547641 
L 342.247164 58.62445 
L 342.215475 58.61716 
L 342.274271 58.673077 
L 342.249176 58.690637 
L 342.009237 58.723526 
L 341.830883 58.727833 
L 341.931653 58.744436 
L 341.942669 58.743305 
L 342.038543 58.806675 
L 341.916786 58.777342 
L 341.993777 58.839857 
L 341.873944 58.956651 
L 342.065588 58.818677 
L 341.84088 58.857037 
L 341.851167 58.773194 
L 341.834384 58.923695 
L 341.757273 58.870692 
L 341.664294 58.704756 
L 341.781925 59.066106 
L 341.573919 59.277995 
L 341.740149 58.97999 
L 341.58698 59.29363 
L 341.611197 59.297704 
L 341.406551 59.352326 
L 341.494964 59.38945 
L 341.350818 59.45993 
L 341.285895 59.438581 
L 341.356852 59.499228 
L 341.308101 59.549243 
L 341.111744 59.834057 
L 341.242527 59.862069 
L 341.294301 59.935883 
L 341.263583 59.941254 
L 341.098426 60.374977 
L 341.181679 60.669317 
L 341.65461 61.932263 
L 341.837215 62.204924 
L 341.984561 62.5825 
L 342.04946 62.940559 
L 342.128635 63.082091 
L 341.963829 62.76558 
L 341.921845 62.378011 
L 341.896694 62.402485 
L 341.801378 62.342312 
L 341.833066 62.282726 
L 341.739079 62.222145 
L 342.041915 62.975843 
L 342.379379 63.721 
L 342.288506 63.667386 
L 342.268177 63.664879 
L 342.458361 63.829002 
L 342.539847 64.301662 
L 342.525296 64.303663 
L 342.383057 65.081366 
L 342.304788 65.188835 
L 342.177752 65.60906 
L 342.141415 65.574858 
L 341.837431 65.635459 
L 341.837296 65.62851 
L 341.840427 65.620658 
L 341.729948 65.646867 
L 341.495382 65.571068 
L 341.537503 65.460712 
L 341.602954 65.534756 
L 341.738901 65.549454 
L 341.512105 65.384132 
L 341.390598 65.12594 
L 341.316777 65.081085 
L 341.323869 65.021481 
L 341.038998 64.92974 
L 340.951544 64.896722 
L 340.966129 64.835597 
L 340.875924 64.698404 
L 340.810123 64.394139 
L 340.772462 64.433293 
L 340.694033 64.379285 
L 340.781794 64.335719 
L 340.902222 64.186641 
L 340.662932 64.366903 
L 340.647908 64.352415 
L 340.640903 64.094175 
L 340.711317 63.926437 
L 340.54668 63.993954 
L 340.433739 63.913194 
L 340.547892 64.1231 
L 340.514442 64.107747 
L 340.399249 64.070303 
L 340.114048 63.542977 
L 339.993967 63.438752 
L 340.125654 63.428783 
L 340.096801 63.423997 
L 340.310277 63.169301 
L 340.250675 63.058172 
L 340.223043 63.161372 
L 340.167582 63.117917 
L 340.172693 63.072368 
L 340.061958 62.981291 
L 340.062206 62.994081 
L 340.023699 62.962212 
L 340.113104 63.176113 
L 340.035715 63.277759 
L 339.966142 63.197989 
L 339.882958 63.070284 
L 340.004441 63.3174 
L 339.890814 63.106988 
L 340.059575 62.383195 
L 339.765836 61.89018 
L 339.571697 61.789801 
L 338.686913 61.058681 
L 338.322517 61.163042 
L 338.409641 61.192781 
L 338.445709 61.221031 
L 338.233395 61.25449 
L 337.876787 61.394028 
L 337.439772 61.358142 
L 337.517321 61.461207 
L 337.334064 61.189703 
L 337.181353 61.049447 
L 337.443267 61.133193 
L 337.449773 61.118171 
L 337.338398 61.0708 
L 337.354762 61.040233 
L 337.284808 61.066609 
L 337.25106 61.045724 
L 337.141787 60.992544 
L 337.237008 60.943716 
L 337.274194 60.87226 
L 337.14079 60.94127 
L 337.131884 60.911424 
L 337.024526 60.917444 
L 337.142907 61.050194 
L 337.120556 61.045816 
L 336.695983 60.866044 
L 336.396341 60.808201 
L 336.774959 60.820472 
L 336.738402 60.769088 
L 336.605716 60.719801 
L 335.756185 60.865062 
L 335.92101 60.710957 
L 335.905998 60.63028 
L 335.849481 60.780064 
L 335.817264 60.676881 
L 335.761562 60.664253 
L 335.789073 60.757215 
L 335.630477 60.905584 
L 335.443251 60.948638 
L 335.612778 60.804602 
L 335.535562 60.754045 
L 335.504985 60.858983 
L 335.326128 60.974977 
L 334.974218 61.008399 
L 335.210823 60.919928 
L 335.083662 60.687245 
L 334.964845 60.526203 
L 334.945328 60.604801 
L 334.871561 60.920297 
L 334.796751 60.867784 
L 334.378765 60.897221 
L 333.11217 60.948422 
L 332.892884 60.908113 
L 332.739582 61.16183 
L 332.993376 61.234582 
L 333.465655 61.115826 
L 333.281228 61.255722 
L 333.426302 61.358774 
L 333.529493 61.311242 
L 333.533149 61.291081 
L 333.617336 61.169748 
L 333.638038 61.177671 
L 333.721821 61.289018 
L 333.686923 61.291529 
L 333.661706 61.310696 
L 333.759269 61.354822 
L 333.714685 61.399382 
L 333.748087 61.437804 
L 333.61859 61.40125 
L 333.614792 61.429854 
L 333.513635 61.528983 
L 333.590196 61.557629 
L 333.622223 61.588172 
L 333.414678 61.521167 
L 333.475602 61.604008 
L 333.364784 61.593176 
L 333.543667 61.730021 
L 334.062098 62.03645 
L 334.036362 62.083928 
L 333.909454 62.149184 
L 333.873981 62.092622 
L 333.795169 62.132881 
L 333.851024 62.118008 
L 333.784925 62.159968 
L 333.69973 62.249087 
L 333.787738 62.00993 
L 333.715305 62.091505 
L 333.536025 61.949932 
L 333.313123 61.89261 
L 333.353468 61.808729 
L 333.311957 61.744149 
L 333.320571 61.806122 
L 333.255534 61.769116 
L 332.96689 61.652165 
L 332.945606 61.716476 
L 333.023641 61.754184 
L 333.118156 61.790845 
L 333.107541 61.849945 
L 333.007748 62.076155 
L 332.917605 62.111173 
L 332.903352 62.01062 
L 332.824412 61.906704 
L 332.796208 61.945139 
L 332.742263 61.871559 
L 332.689708 61.928495 
L 332.577082 61.914987 
L 332.594695 61.988013 
L 332.390399 62.088154 
L 332.3991 62.056361 
L 331.885088 61.898685 
L 331.993799 61.828664 
L 331.972488 61.640061 
L 331.899818 61.750667 
L 331.605159 61.538465 
L 331.553823 61.516662 
L 331.067871 61.515528 
L 331.197251 61.65215 
L 331.035477 61.721586 
L 330.778723 61.707027 
L 329.480464 61.52158 
L 329.584124 61.457897 
L 329.575249 61.337407 
L 329.5021 61.371725 
L 329.444124 61.536009 
L 329.499365 61.629887 
L 329.460833 61.624258 
L 329.070018 61.729132 
L 328.646374 61.923367 
L 328.676962 61.787384 
L 328.646455 61.772544 
L 328.712057 61.704913 
L 328.69213 61.544951 
L 328.655145 61.554411 
L 328.383744 61.616052 
L 328.430359 61.679306 
L 328.452698 62.029489 
L 327.81532 62.543735 
L 327.566645 62.645884 
L 327.617119 62.658767 
L 327.322545 62.784992 
L 327.322863 62.6363 
L 327.347774 62.595484 
L 327.19695 62.648602 
L 327.196484 62.642309 
L 327.105535 62.531674 
L 327.178515 62.659043 
L 327.124719 62.689421 
L 326.999946 62.636581 
L 326.999252 62.624449 
L 326.912821 62.567464 
L 327.018888 62.899783 
L 326.83838 62.871897 
L 326.768166 62.816087 
L 326.792232 62.95976 
L 326.610854 63.136682 
L 326.39309 63.192322 
L 326.469335 63.251911 
L 326.497692 63.193879 
L 326.573916 63.154052 
L 326.534259 63.263482 
L 326.383599 63.427165 
L 326.350037 63.376562 
L 326.111953 63.386995 
L 326.254142 63.494877 
L 326.325457 63.638739 
L 326.032498 63.928628 
L 325.935642 63.808828 
L 325.881748 63.771338 
L 325.974543 63.929755 
L 325.931544 63.940096 
L 325.884861 63.931498 
L 326.195935 64.080401 
L 326.163595 64.135875 
L 326.106416 64.283074 
L 326.117361 64.293976 
L 326.09781 64.309939 
L 326.162637 64.416727 
L 326.385721 65.047351 
L 326.502622 65.119631 
L 326.443448 65.175741 
L 326.398255 65.173952 
L 326.059878 65.150019 
L 325.88135 65.089899 
L 325.339773 65.006714 
L 325.33959 64.997259 
L 325.290396 64.95684 
L 325.249729 64.967089 
L 325.048854 64.913903 
L 324.648359 64.766083 
L 324.663792 64.719072 
L 324.32324 64.208917 
L 324.331115 64.046369 
L 324.174701 63.641601 
L 323.887973 63.427567 
L 323.895763 63.412816 
L 323.83964 63.327858 
L 323.819732 63.324268 
L 323.728184 63.184849 
L 323.354531 62.717294 
L 323.152688 62.344792 
L 323.01377 62.1477 
L 322.039283 61.652728 
L 321.221284 61.758387 
L 321.047201 62.189005 
L 321.070149 62.201703 
L 321.07896 62.212082 
L 320.975496 62.248168 
L 320.640118 62.41342 
L 320.424214 62.293274 
L 320.21663 62.223071 
L 320.224006 62.202046 
L 320.134719 62.181421 
L 319.821662 62.030228 
L 319.67507 61.949866 
L 319.450155 61.705503 
L 319.356071 61.544112 
L 318.996668 60.872656 
L 318.68721 60.728207 
L 318.07215 60.230858 
L 317.871545 60.124214 
L 317.487912 59.893122 
L 316.00674 59.918468 
L 316.008842 60.02412 
L 316.015244 60.340977 
L 315.934999 60.342585 
L 313.021467 60.291777 
L 309.810881 59.272274 
L 309.8301 59.240396 
L 309.882277 59.159809 
L 309.775667 59.169982 
L 307.607672 59.266467 
L 307.651953 59.30268 
L 307.461453 58.903621 
L 307.258234 58.626637 
L 306.479372 58.280547 
L 306.388217 58.231933 
L 306.412976 58.158676 
L 306.218403 57.986414 
L 306.212958 57.989493 
L 305.627045 57.87727 
L 305.368482 57.678614 
L 304.290181 57.510595 
L 304.327674 57.421941 
L 304.269821 56.980847 
L 304.043669 56.89205 
L 303.959974 56.696355 
L 303.846643 56.614382 
L 303.573991 56.364594 
L 303.048862 55.686129 
L 303.04248 55.607295 
L 303.136155 55.608888 
L 303.164104 55.420237 
L 302.97184 55.305368 
L 302.726426 55.203062 
L 302.476443 54.722871 
L 302.490273 54.718396 
L 302.487112 54.599021 
L 302.515615 54.517997 
L 302.579247 54.517026 
L 302.613721 54.662058 
L 302.615404 54.709873 
L 302.68631 54.73411 
L 302.938835 54.835768 
L 302.812592 54.649491 
L 302.556679 54.373037 
L 302.661801 54.327934 
L 303.479518 54.317901 
L 302.675111 54.235634 
L 302.48582 54.234314 
L 302.505093 54.268331 
L 302.466742 54.513599 
L 302.317321 54.434291 
L 302.212782 54.369154 
L 302.019973 54.122089 
L 302.122801 54.202804 
L 301.562923 53.681138 
L 301.353339 53.388054 
L 301.066601 52.526015 
L 300.697622 52.174829 
L 300.776433 51.839741 
L 300.875402 51.463017 
L 300.796011 50.842236 
L 300.76916 50.817959 
L 300.807101 50.759755 
L 300.751005 50.577455 
L 300.733822 50.576769 
L 300.599248 50.294902 
L 300.597576 49.992713 
L 300.462706 49.842868 
L 300.480364 49.831754 
L 300.62391 49.43694 
L 300.702817 49.341016 
L 300.853221 49.327121 
L 300.670258 49.340095 
L 300.704202 49.290054 
L 300.847115 48.699382 
L 300.980877 46.748421 
L 300.916182 46.641328 
L 301.058684 46.709496 
L 301.702779 46.678913 
L 301.236131 46.579895 
L 301.080695 46.613725 
L 300.856564 46.608457 
L 300.868586 46.545223 
L 300.865806 46.248543 
L 300.978299 46.482832 
L 301.020699 46.342931 
L 301.016495 46.33885 
L 301.007814 46.220353 
L 301.039281 46.210307 
L 301.145819 46.221069 
L 300.828468 46.14927 
L 300.815225 46.007936 
L 300.927833 46.013793 
L 301.094659 45.958723 
L 300.906294 45.915097 
L 300.787179 45.892841 
L 300.790132 45.938136 
L 300.752421 45.996785 
L 300.715734 45.714846 
L 300.330665 45.113893 
L 300.207896 44.838868 
L 300.222212 44.833059 
L 300.26585 44.684947 
L 300.247537 44.681146 
L 300.210575 44.634828 
L 300.464763 44.696425 
L 301.139411 44.830606 
L 301.752528 44.84819 
L 302.002238 44.930875 
L 302.001444 44.840907 
L 302.07061 44.852625 
L 302.058571 44.920957 
L 302.197227 45.075006 
L 302.130548 45.118582 
L 301.698949 45.573525 
L 301.728374 45.588154 
L 301.999801 45.497173 
L 301.789061 45.478009 
L 301.964174 45.310872 
L 302.093057 45.203794 
L 302.283079 45.047176 
L 302.316931 45.132376 
L 302.32853 45.20445 
L 302.252237 45.228887 
L 302.146 45.404615 
L 302.265435 45.349855 
L 302.277134 45.562668 
L 302.06683 45.738854 
L 302.025934 45.666624 
L 302.031884 45.528631 
L 301.926327 45.643085 
L 301.78113 45.816631 
L 301.986061 45.780603 
L 302.286037 45.635597 
L 302.284975 45.600595 
L 302.383871 45.646528 
L 302.397379 45.64195 
L 302.482744 45.526208 
L 302.44283 45.478937 
L 302.517359 44.984492 
L 302.59646 44.927689 
L 302.4869 44.893153 
L 302.27128 44.724353 
L 302.405577 44.711865 
L 302.403604 44.665385 
L 302.343525 44.635845 
L 302.108716 44.494435 
L 302.309225 44.476521 
L 302.091401 44.175439 
L 301.996135 44.070656 
L 302.052187 44.031359 
L 327.942404 43.510031 
L 327.940307 43.418348 
L 327.934717 43.174427 
L 327.934717 43.174427 
" style="fill:none;stroke:#000000;stroke-linecap:square;stroke-width:1.5;"/>
   </g>
   <g id="line2d_12">
    <path clip-path="url(#pd1fe997092)" d="M 324.823558 64.677879 
L 324.688625 64.486072 
L 324.089376 64.094526 
L 323.335863 63.583428 
L 321.715054 62.534017 
L 321.376957 62.280956 
L 320.736235 61.984841 
L 320.54278 61.970041 
L 320.294899 61.908384 
L 319.450953 62.008269 
L 319.073121 62.20007 
L 317.846684 63.100547 
L 316.826545 63.056655 
L 316.05544 62.818185 
L 315.659724 62.604431 
L 315.053386 62.448218 
L 314.428287 62.474691 
L 313.314751 62.585966 
L 310.243715 64.843807 
L 308.27879 66.47308 
L 308.199715 66.62478 
L 305.529478 68.508973 
L 304.993705 68.579445 
L 304.823288 68.46596 
L 302.502852 70.584261 
L 301.46634 70.576432 
L 298.619583 72.115212 
L 297.169677 73.135251 
L 296.698063 73.103855 
L 296.454653 73.286103 
L 296.206244 73.23359 
L 295.428657 73.685613 
L 295.093715 73.836165 
L 294.704857 74.045333 
L 294.554211 74.074352 
L 293.969407 73.892874 
L 293.062065 74.402893 
L 291.754622 74.148394 
L 291.752189 74.226465 
L 292.54972 74.466454 
L 290.101089 73.875666 
L 286.39056 74.870305 
L 285.560485 75.072174 
L 284.676853 75.533132 
L 284.270265 75.602364 
L 283.740415 62.426149 
L 284.00638 62.12782 
L 283.449675 62.510718 
L 283.226179 62.392084 
L 282.820685 62.114585 
L 282.613444 62.19431 
L 281.538957 62.513353 
L 281.231145 62.769216 
L 279.132806 63.229071 
L 278.939027 63.366269 
L 278.569467 63.6954 
L 277.950051 64.039927 
L 277.947131 64.129564 
L 277.21613 64.375482 
L 275.75512 65.677487 
L 273.147627 67.12232 
L 272.269569 67.541627 
L 272.026408 67.587408 
L 271.769404 67.699204 
L 271.429056 68.021849 
L 271.044899 67.937911 
L 270.798791 68.040109 
L 270.352073 68.398205 
L 270.092998 68.278833 
L 269.360255 68.896296 
L 268.791604 68.946725 
L 267.963193 68.895743 
L 247.823152 82.143666 
L 247.294574 82.591144 
L 260.525042 73.621618 
L 252.323423 78.919894 
L 253.717474 77.977773 
L 264.646056 70.225255 
L 252.440024 78.964699 
L 249.392064 80.096026 
L 251.744388 78.300639 
L 258.700393 73.453161 
L 258.285615 73.364089 
L 249.368253 79.580407 
L 244.217273 82.998093 
L 240.541055 81.85273 
L 249.124208 77.641014 
L 236.779076 80.692393 
L 232.777391 79.774528 
L 254.435403 71.755821 
L 232.02045 79.364976 
L 231.82196 79.253843 
L 231.223777 79.368827 
L 230.067754 79.029974 
L 229.555014 79.312565 
L 229.08377 79.342261 
L 224.163085 78.680889 
L 224.394415 78.691278 
L 221.041644 76.809936 
L 220.901537 76.562094 
L 220.429966 76.21684 
L 219.192528 76.038029 
L 218.857954 75.853378 
L 218.520821 76.099321 
L 218.033336 76.056111 
L 214.988342 75.435041 
L 215.936771 75.503161 
L 210.236691 75.255006 
L 215.908909 75.471968 
L 197.545325 73.753826 
L 199.620774 73.829242 
L 198.886116 73.926979 
L 191.431957 73.232043 
L 199.389698 73.67475 
L 204.952017 74.494667 
L 204.970633 74.223783 
L 197.740682 74.010953 
L 206.36402 74.364577 
L 198.80742 74.096749 
L 202.874342 74.322564 
L 186.589869 73.864677 
L 195.784068 73.985856 
L 185.208749 73.761984 
L 182.460506 73.570644 
L 183.947156 73.992155 
L 181.557497 73.913729 
L 178.191851 74.423457 
L 177.547399 74.445912 
L 174.749013 73.899487 
L 171.68946 74.738764 
L 171.068091 74.54519 
L 170.021052 74.078133 
L 168.279419 74.126988 
L 167.201727 73.714368 
L 165.498513 74.24377 
L 164.971457 74.034968 
L 164.232273 73.62197 
L 162.521103 73.071185 
L 161.910014 72.991782 
L 160.865825 72.210298 
L 159.872001 72.009715 
L 159.275921 72.004565 
L 159.007641 71.816127 
L 158.760182 71.787093 
L 158.414348 71.614182 
L 158.067706 71.640353 
L 157.406946 71.349735 
L 156.753059 71.145652 
L 154.371046 71.025502 
L 153.705624 70.869154 
L 153.435422 70.934907 
L 152.832006 70.827188 
L 152.685936 70.878432 
L 150.613998 71.068137 
L 150.088456 71.391258 
L 149.965106 71.50831 
L 149.499512 71.76541 
L 149.4028 71.937052 
L 148.531045 72.635119 
L 146.861619 72.611094 
L 147.327896 72.74969 
L 147.37908 72.882429 
L 139.365393 71.475192 
L 128.984162 69.167925 
L 130.319238 70.323752 
L 128.447958 68.918728 
L 142.1064 73.369457 
L 134.643416 71.804025 
L 130.853493 70.621596 
L 124.507994 67.709125 
L 140.291919 73.216761 
L 123.122765 67.233727 
L 133.447358 71.174913 
L 136.37581 72.149081 
L 137.755932 72.900877 
L 138.189272 72.697342 
L 133.420029 71.322748 
L 122.945909 67.562027 
L 117.649513 65.903055 
L 118.309405 66.060972 
L 117.069194 65.779964 
L 116.670813 65.543056 
L 115.944342 65.204542 
L 115.565541 65.107619 
L 113.706745 65.154661 
L 115.188972 65.01382 
L 111.394837 65.435124 
L 111.196966 65.340667 
L 110.237882 65.742534 
L 109.509307 65.811106 
L 110.014381 65.545116 
L 112.517959 65.056272 
L 107.495652 65.762917 
L 106.46174 65.184889 
L 105.982601 65.156501 
L 105.421221 65.394901 
L 104.346167 65.035124 
L 104.068096 65.056205 
L 100.857574 63.806817 
L 100.109279 63.773123 
L 99.818981 63.554921 
L 98.197492 62.731463 
L 98.591402 62.905739 
L 97.400738 62.845949 
L 96.245005 62.702624 
L 96.092312 62.651302 
L 96.11654 62.652064 
L 94.380641 62.899226 
L 94.067269 63.074979 
L 91.676676 63.033583 
L 91.437593 62.942166 
L 91.069367 63.047507 
L 90.384027 63.113569 
L 90.673976 62.962106 
L 89.906924 63.242246 
L 89.64187 63.126786 
L 88.791609 63.3519 
L 87.524304 63.585867 
L 87.531277 63.548568 
L 83.013673 65.344099 
L 85.175389 64.398268 
L 84.727893 64.365239 
L 85.584054 64.029576 
L 82.298048 65.207465 
L 80.602869 64.683341 
L 80.602869 64.683341 
" style="fill:none;stroke:#000000;stroke-linecap:square;stroke-width:1.5;"/>
   </g>
   <g id="patch_3">
    <path d="M 35.304688 97.762259 
L 35.304688 7.2 
" style="fill:none;stroke:#000000;stroke-linecap:square;stroke-linejoin:miter;stroke-width:0.8;"/>
   </g>
   <g id="patch_4">
    <path d="M 370.104688 97.762259 
L 370.104688 7.2 
" style="fill:none;stroke:#000000;stroke-linecap:square;stroke-linejoin:miter;stroke-width:0.8;"/>
   </g>
   <g id="patch_5">
    <path d="M 35.304688 97.762259 
L 370.104688 97.762259 
" style="fill:none;stroke:#000000;stroke-linecap:square;stroke-linejoin:miter;stroke-width:0.8;"/>
   </g>
   <g id="patch_6">
    <path d="M 35.304688 7.2 
L 370.104688 7.2 
" style="fill:none;stroke:#000000;stroke-linecap:square;stroke-linejoin:miter;stroke-width:0.8;"/>
   </g>
  </g>
 </g>
 <defs>
  <clipPath id="pd1fe997092">
   <rect height="90.562259" width="334.8" x="35.304688" y="7.2"/>
  </clipPath>
 </defs>
</svg>
